<svg width="71" height="40" viewBox="0 0 71 40" fill="none" xmlns="http://www.w3.org/2000/svg">
<g clip-path="url(#clip0_1_5)">
<path d="M53.5132 39.4307C51.5191 39.8047 49.4617 40 47.359 40C43.4628 40 39.7235 39.3301 36.2512 38.0985C23.4329 33.5534 14.2573 21.3631 14.2573 7.03843C14.2573 6.80412 14.2603 6.56981 14.2649 6.337V6.33399C14.2724 5.98252 14.2845 5.63255 14.3041 5.28559C14.6782 2.32062 17.2741 0.0240479 20.4206 0.0240479C23.813 0.0240479 26.5673 2.69462 26.5839 5.99454V6.02458C26.5794 6.13573 26.5764 6.24838 26.5749 6.36103C26.5703 6.58633 26.5673 6.81163 26.5673 7.03843C26.5673 8.19348 26.6276 9.3335 26.7438 10.4585C27.4135 16.9306 29.9642 22.8486 33.8438 27.6595C36.0838 30.4382 38.7672 32.8474 41.7855 34.782C45.2955 37.0305 49.2611 38.6347 53.5132 39.4307Z" fill="#02E683"/>
<path d="M62.1759 36.5213C61.3191 36.9494 60.4397 37.3414 59.5422 37.6959C58.3974 38.1465 57.2223 38.537 56.0202 38.86H56.0186C51.6322 37.6794 47.6063 35.6216 44.1416 32.8895C40.8095 30.261 37.9994 27.0076 35.8846 23.3067C33.1439 18.5063 31.5797 12.9548 31.5797 7.03843C31.5797 6.80412 31.5827 6.56981 31.5872 6.337V6.33399C31.5917 6.15525 31.5963 5.97651 31.6023 5.79928C31.6234 5.2195 31.7154 4.64123 31.9055 4.093C32.7321 1.72733 35.0324 0.0240479 37.743 0.0240479C41.1353 0.0240479 43.8897 2.69462 43.9063 5.99454V6.02458C43.9017 6.13573 43.8987 6.24838 43.8972 6.36103C43.8927 6.58633 43.8897 6.81163 43.8897 7.03843C43.8897 19.9392 51.3321 31.1081 62.1759 36.5213Z" fill="#02E683"/>
<path d="M71 30.1108C69.1552 31.9823 67.0902 33.636 64.8457 35.0299C55.4681 29.2111 49.2294 18.8502 49.2294 7.03843C49.2294 6.80412 49.2324 6.56981 49.2369 6.337V6.33399C49.2445 5.98252 49.2565 5.63255 49.2761 5.28559C49.6502 2.32062 52.2462 0.0240479 55.3927 0.0240479C58.785 0.0240479 61.5394 2.69462 61.5559 5.99454V6.02458C61.5514 6.13573 61.5484 6.24838 61.5469 6.36103C61.5424 6.58633 61.5394 6.81163 61.5394 7.03843C61.5394 12.2234 62.7415 17.1289 64.885 21.4937C66.4522 24.69 68.5247 27.5964 71 30.1108Z" fill="#02E683"/>
<path d="M5.83446 11.6195C9.05674 11.6195 11.6689 9.01842 11.6689 5.80977C11.6689 2.60112 9.05674 0 5.83446 0C2.61218 0 0 2.60112 0 5.80977C0 9.01842 2.61218 11.6195 5.83446 11.6195Z" fill="#02E683"/>
</g>
<defs>
<clipPath id="clip0_1_5">
<rect width="71" height="40" fill="white"/>
</clipPath>
</defs>
</svg>
